<mxfile host="app.diagrams.net">
  <diagram name="Atividade - Compra">
    <mxGraphModel>
      <root>
        <mxCell id="0"/>
        <mxCell id="1" parent="0"/>
        <mxCell id="start" value="" style="ellipse;whiteSpace=wrap;fillColor=#000000;" vertex="1" parent="1">
          <mxGeometry x="60" y="60" width="30" height="30" as="geometry"/>
        </mxCell>
        <mxCell id="a1" value="Visualizar Produtos" style="rounded=1;whiteSpace=wrap;" vertex="1" parent="1">
          <mxGeometry x="150" y="60" width="140" height="40" as="geometry"/>
        </mxCell>
        <mxCell id="a2" value="Adicionar ao Carrinho" style="rounded=1;whiteSpace=wrap;" vertex="1" parent="1">
          <mxGeometry x="150" y="130" width="160" height="40" as="geometry"/>
        </mxCell>
        <mxCell id="a3" value="Finalizar Pedido" style="rounded=1;whiteSpace=wrap;" vertex="1" parent="1">
          <mxGeometry x="150" y="200" width="140" height="40" as="geometry"/>
        </mxCell>
        <mxCell id="a4" value="Validar Estoque" style="rounded=1;whiteSpace=wrap;" vertex="1" parent="1">
          <mxGeometry x="150" y="270" width="140" height="40" as="geometry"/>
        </mxCell>
        <mxCell id="a5" value="Notificar Agricultor" style="rounded=1;whiteSpace=wrap;" vertex="1" parent="1">
          <mxGeometry x="150" y="340" width="160" height="40" as="geometry"/>
        </mxCell>
        <mxCell id="a6" value="Pedido ConcluÃ­do" style="rounded=1;whiteSpace=wrap;" vertex="1" parent="1">
          <mxGeometry x="150" y="410" width="140" height="40" as="geometry"/>
        </mxCell>
        <mxCell id="end" value="" style="ellipse;whiteSpace=wrap;fillColor=#000000;" vertex="1" parent="1">
          <mxGeometry x="350" y="420" width="30" height="30" as="geometry"/>
        </mxCell>

        <mxCell id="f1" edge="1" parent="1" source="start" target="a1"/>
        <mxCell id="f2" edge="1" parent="1" source="a1" target="a2"/>
        <mxCell id="f3" edge="1" parent="1" source="a2" target="a3"/>
        <mxCell id="f4" edge="1" parent="1" source="a3" target="a4"/>
        <mxCell id="f5" edge="1" parent="1" source="a4" target="a5"/>
        <mxCell id="f6" edge="1" parent="1" source="a5" target="a6"/>
        <mxCell id="f7" edge="1" parent="1" source="a6" target="end"/>
      </root>
    </mxGraphModel>
  </diagram>
</mxfile>